<svg width="31" height="31" viewBox="0 0 31 31" fill="none" xmlns="http://www.w3.org/2000/svg">
<path d="M5.16663 24.5417V21.9583H7.74996V12.9167C7.74996 11.1299 8.28815 9.54757 9.36454 8.16979C10.4409 6.77048 11.8402 5.85555 13.5625 5.425V4.52083C13.5625 3.98264 13.7454 3.53055 14.1114 3.16458C14.4989 2.77708 14.9618 2.58333 15.5 2.58333C16.0382 2.58333 16.4902 2.77708 16.8562 3.16458C17.2437 3.53055 17.4375 3.98264 17.4375 4.52083V5.425C19.1597 5.85555 20.559 6.77048 21.6354 8.16979C22.7118 9.54757 23.25 11.1299 23.25 12.9167V21.9583H25.8333V24.5417H5.16663ZM15.5 28.4167C14.7895 28.4167 14.176 28.1691 13.6593 27.674C13.1642 27.1573 12.9166 26.5438 12.9166 25.8333H18.0833C18.0833 26.5438 17.825 27.1573 17.3083 27.674C16.8132 28.1691 16.2104 28.4167 15.5 28.4167ZM10.3333 21.9583H20.6666V12.9167C20.6666 11.4958 20.1607 10.2795 19.1489 9.26771C18.1371 8.2559 16.9208 7.75 15.5 7.75C14.0791 7.75 12.8628 8.2559 11.851 9.26771C10.8392 10.2795 10.3333 11.4958 10.3333 12.9167V21.9583Z" fill="white"/>
</svg>
